<?xml version="1.0" encoding="utf-8"?>
<!-- Generator: Adobe Illustrator 27.0.0, SVG Export Plug-In . SVG Version: 6.00 Build 0)  -->
<svg version="1.1" id="图层_1" xmlns="http://www.w3.org/2000/svg" xmlns:xlink="http://www.w3.org/1999/xlink" x="0px" y="0px"
	 viewBox="0 0 151 20" style="enable-background:new 0 0 151 20;" xml:space="preserve">
<style type="text/css">
	.st0{clip-path:url(#SVGID_00000058576590827434630990000006103421986429016710_);}
	.st1{fill:#555555;}
	.st2{fill:#F9108B;}
	.st3{fill:url(#SVGID_00000170240475477517460510000010161251059678496701_);}
	.st4{enable-background:new    ;}
	.st5{fill:#010101;}
	.st6{font-family:'Verdana';}
	.st7{font-size:11px;}
	.st8{fill:#FFFFFF;}
	.st9{font-size:8.3456px;}
</style>
<g>
	<defs>
		<path id="SVGID_1_" d="M3,0h145c1.7,0,3,1.3,3,3v14c0,1.7-1.3,3-3,3H3c-1.7,0-3-1.3-3-3V3C0,1.3,1.3,0,3,0z"/>
	</defs>
	<clipPath id="SVGID_00000142151065239491218140000012855007937411022997_">
		<use xlink:href="#SVGID_1_"  style="overflow:visible;"/>
	</clipPath>
	<g style="clip-path:url(#SVGID_00000142151065239491218140000012855007937411022997_);">
		<rect class="st1" width="108.9" height="20"/>
		<rect x="66.9" class="st2" width="84.1" height="20"/>
		
			<linearGradient id="SVGID_00000147934350874328573710000001493104197148016816_" gradientUnits="userSpaceOnUse" x1="-432.6126" y1="497.95" x2="-432.6126" y2="496.95" gradientTransform="matrix(151 0 0 -20 65400 9959)">
			<stop  offset="0" style="stop-color:#BBBBBB;stop-opacity:0.1"/>
			<stop  offset="1" style="stop-color:#000000;stop-opacity:0.1"/>
		</linearGradient>
		<rect style="fill:url(#SVGID_00000147934350874328573710000001493104197148016816_);" width="151" height="20"/>
	</g>
</g>
<g class="st4">
	<text transform="matrix(1 0 0 1 24.4931 15)" class="st5 st6 st7">Twitter</text>
</g>
<text transform="matrix(1 0 0 1 24.4934 14)" class="st8 st6 st7">Twitter</text>
<g class="st4">
	<text transform="matrix(1 0 0 1 72.1914 13.7563)" class="st5 st6 st9">@jarvis_onsolana</text>
</g>
<text transform="matrix(1 0 0 1 72.1914 12.9976)" class="st8 st6 st9">@jarvis_onsolana</text>
<g>
	<g>
		<g>
			<path class="st5" d="M16.8,5.8h1.8L14.7,10l4.5,5.6h-3.5l-2.8-3.4l-3.2,3.4H8l4.1-4.4L7.8,5.8h3.6L13.9,9L16.8,5.8z M16.2,14.6h1
				l-6.3-7.9h-1L16.2,14.6z M16.2,14.6"/>
		</g>
	</g>
</g>
<g>
	<g>
		<g>
			<path class="st8" d="M16.8,4.9h1.8L14.7,9l4.5,5.6h-3.5l-2.8-3.4l-3.2,3.4H8l4.1-4.4L7.8,4.9h3.6L13.9,8L16.8,4.9z M16.2,13.7h1
				l-6.3-7.9h-1L16.2,13.7z M16.2,13.7"/>
		</g>
	</g>
</g>
</svg>
